<?xml version="1.0" encoding="UTF-8"?>
<!-- Copyright (C) Blizzard Entertainment, Inc. -->
<!DOCTYPE svg PUBLIC "-//W3C//DTD SVG 1.1//EN" "http://www.w3.org/Graphics/SVG/1.1/DTD/svg11.dtd">
<svg xmlns="http://www.w3.org/2000/svg"
     version="1.1"
     width="64px"
     height="64px"
     viewBox="0 0 64 64"
     fill="#1186cb"
>
    <title>Battle.net logo</title>
    <path d="M39.086 22.373c-.746-.317-.623-.247-.623-.247s-.08-.088 1.069.816c1.75 1.377 2.907 3.603 3.532 5.768.768 2.668.204 6.369-2.228 10.053-5.185 7.856-13.558 12.445-15.226 9.722-.846-1.381 1.926-4.122 1.926-4.122l-1.675.91s-2.931 3.497-2.395 5.628c.915 3.636 10.992 1.171 18.285-10.746 6.549-10.697-.698-16.943-2.665-17.782z"/>
    <path d="M39.047 22.276c-.746-.318-.899-.293-.899-.293s.066-.025 1.215.879c1.75 1.377 3.038 3.586 3.662 5.752.769 2.667.205 6.369-2.228 10.054-5.185 7.856-13.557 12.444-15.226 9.722-.846-1.382 1.925-4.122 1.925-4.122l-1.675.909s-2.931 3.497-2.394 5.628c.914 3.635 10.991 1.17 18.285-10.746 6.548-10.699-.698-16.944-2.665-17.783z"/>
    <path d="M36.708 41.727s.115-.025-1.242.517c-2.067.827-4.573.717-6.762.174-2.694-.667-5.617-3.007-7.592-6.955-4.211-8.418-3.999-17.964-.808-18.048 1.621-.042 2.608 3.729 2.608 3.729l.05-1.905s-1.563-4.288-3.676-4.889c-3.606-1.026-6.51 8.934.164 21.208 5.991 11.02 15.023 7.868 16.733 6.583.648-.486.525-.414.525-.414z"/>
    <path d="M35.626 42.138c-2.068.826-4.625.838-6.812.295-2.694-.667-5.617-3.007-7.593-6.955-4.211-8.419-3.999-17.965-.807-18.048 1.62-.042 2.608 3.729 2.608 3.729l.05-1.905s-1.564-4.287-3.677-4.888c-3.606-1.026-6.51 8.934.163 21.208 5.992 11.02 15.024 7.867 16.733 6.583.639-.479.701-.627.703-.632-.003.007-.066.093-1.368.613z"/>
    <path d="M34.536 18.464c-12.539-.321-14.326 9.077-14.068 11.2.098.805.097.663.097.663s-.036.113.174-1.333c.317-2.203 1.667-4.319 3.23-5.943 1.925-1.999 5.413-3.361 9.82-3.097 9.396.562 17.556 5.52 16.033 8.325-.774 1.423-4.534.393-4.534.393l1.625.996s4.494.79 6.072-.74c2.691-2.611-4.482-10.105-18.449-10.464z"/>
    <path d="M34.473 18.552c-12.54-.321-14.325 9.077-14.068 11.2.096.793.193.921.196.925-.003-.005-.047-.102.154-1.492.318-2.204 1.586-4.424 3.15-6.047 1.925-1.999 5.413-3.361 9.82-3.098 9.396.563 17.556 5.52 16.032 8.325-.773 1.424-4.532.394-4.532.394l1.625.996s4.495.79 6.072-.74c2.69-2.61-4.482-10.106-18.449-10.463z"/>
    <path d="M37.273 18.685c-.865-1.643-3.493-6.421-6.087-8.961-3.813-3.734-5.904-2.135-6.733-1.241-4.759 5.13-1.827 19.291 1.188 27.814a64.429 64.429 0 0 0 1.449 3.718c.223-.09.552-.229.903-.398.387-.188.682-.345.859-.442-.113-.321-.227-.644-.338-.972-2.773-8.138-5.046-21.607-.404-24.862 1.289-.905 2.777.146 3.931 1.247 1.059 1.013 2.408 2.979 3.044 3.943l2.188.154zm-3.944 30.767l-.967.669c2.03 3.24 4.031 5.833 5.602 7.46.914.947 1.553.959 1.553.959-.824-.673-3.366-3.751-6.188-9.088zm-3.685-5.89c-.208.165-.52.401-.676.519a73.57 73.57 0 0 0 2.092 3.88l.117-.069 1.005-.708a76.726 76.726 0 0 1-1.856-4.155c-.16.124-.454.353-.682.533z"/>
    <path d="M36.207 18.54c.739.048 1.142.101 1.145.101-.894-1.694-3.493-6.395-6.058-8.907C27.48 6 25.389 7.6 24.56 8.494c-4.76 5.129-1.827 19.292 1.187 27.813.448 1.266.936 2.51 1.45 3.724.223-.09.552-.229.903-.4.387-.188.682-.345.86-.442a92.39 92.39 0 0 1-.34-.977c-2.774-8.138-5.046-21.606-.404-24.862 1.29-.904 2.778.146 3.93 1.248 1.04.993 2.356 2.903 3.008 3.887.036.002.463.018 1.053.055zm-2.773 30.903a21.415 21.415 0 0 1-.989.681c2.042 3.274 4.055 5.896 5.632 7.532.914.946 1.621.978 1.621.978-.826-.675-3.41-3.801-6.264-9.191zm-3.703-5.876c-.271.215-.636.497-.663.518a73.906 73.906 0 0 0 2.059 3.836c.063-.033.231-.123.591-.335.342-.201.524-.32.591-.363a76.448 76.448 0 0 1-1.885-4.21l-.693.554z"/>
    <path d="M55.438 36.413c-2.063-6.686-15.794-11.227-24.682-12.877a64.817 64.817 0 0 0-3.944-.605c-.034.238-.078.593-.107.981a19.88 19.88 0 0 0-.046.965c.334.061.671.126 1.011.193 8.435 1.666 21.234 6.433 21.733 12.081.138 1.57-1.515 2.333-3.046 2.781-1.406.411-3.783.595-4.937.665l-1.225 1.819c1.859.073 7.308.186 10.802-.791 5.139-1.435 4.8-4.045 4.441-5.212zM6.16 23.567c-1.276.316-1.607.864-1.607.864 1.001-.378 4.964-1.045 11.04-.812l-.077-1.178c-3.861.136-7.143.575-9.356 1.126zm16.186-1.04a74.138 74.138 0 0 0-4.3-.129l-.003.113.056 1.25c1.409.104 2.909.256 4.492.469l-.126-.874a76.284 76.284 0 0 1-.119-.829z"/>
    <path d="M45.427 23.206a76.679 76.679 0 0 1-2.778 3.829l.827.326c.318.126.731.293.782.314a73.022 73.022 0 0 0 2.379-3.85l-.099-.06-1.111-.559zm-5.292 6.922c-.221.259-.444.519-.673.779-5.66 6.471-16.188 15.173-21.329 12.781-1.428-.664-1.263-2.477-.885-4.028.357-1.462 1.431-3.689 1.933-4.689l-.95-1.973c-.941 1.486-3.85 6.255-4.768 9.834-1.327 5.168 1.104 6.18 2.293 6.451 6.821 1.557 17.619-8.064 23.493-14.936a65.407 65.407 0 0 0 2.496-3.114 15.798 15.798 0 0 0-.797-.582c-.356-.242-.64-.418-.813-.523zm11.44-18.921c-.171 1.05-1.567 4.787-4.774 9.897l1.063.504c1.788-3.376 3.032-6.404 3.657-8.577.363-1.264.054-1.824.054-1.824z"/>
    <path d="M45.373 23.115a76.056 76.056 0 0 1-2.705 3.737c.069.026.482.184.825.318.296.116.693.287.781.325a74.982 74.982 0 0 0 2.3-3.711l-.582-.341a10.39 10.39 0 0 0-.619-.328zm6.193-12.111c-.172 1.053-1.587 4.852-4.827 10.018.079.036.31.14.605.281.11.052.367.186.475.241 1.815-3.407 3.081-6.463 3.708-8.648.364-1.264.039-1.892.039-1.892zM40.092 30.028c-.222.259-.446.519-.674.78-5.66 6.471-16.188 15.172-21.329 12.781-1.429-.665-1.263-2.479-.885-4.028.351-1.439 1.397-3.62 1.909-4.642-.023-.045-.217-.421-.472-.94a35.032 35.032 0 0 1-.487-1.03c-.974 1.542-3.829 6.244-4.737 9.783-1.326 5.17 1.104 6.181 2.293 6.452 6.823 1.558 17.621-8.064 23.494-14.936a66.893 66.893 0 0 0 2.499-3.114 15.719 15.719 0 0 0-1.611-1.106z"/>
    <path d="M55.374 36.502c-2.062-6.687-15.793-11.229-24.682-12.878a65.121 65.121 0 0 0-3.944-.605c-.034.237-.078.593-.106.981-.031.429-.042.764-.046.966.334.062.671.125 1.011.193 8.434 1.667 21.234 6.433 21.733 12.081.139 1.569-1.515 2.332-3.046 2.78-1.376.402-3.683.588-4.862.661l.002.003-.603.898c-.391.583-.634.919-.634.919l-.008.006c1.912.072 7.285.172 10.745-.794 5.139-1.435 4.8-4.046 4.44-5.211zM22.305 22.61a74.714 74.714 0 0 0-4.262-.136c-.004.098-.011.345-.005.682.007.397.018.617.022.7 1.411.104 2.911.255 4.491.466a84.502 84.502 0 0 1-.141-.915c-.077-.526-.101-.759-.105-.797zm-6.834-.098c-3.896.128-7.209.562-9.432 1.115-1.276.318-1.658.914-1.658.914 1.003-.379 5.036-1.058 11.18-.826-.008-.084-.032-.33-.058-.659-.009-.122-.025-.42-.032-.544z"/>
</svg>
