<?xml version="1.0" encoding="UTF-8"?>
<!-- Copyright (C) Blizzard Entertainment, Inc. -->
<!-- SPDX-License-Identifier: UNLICENSED -->
<!-- https://www.blizzard.com/en-us/legal/8bcb0794-6641-4ce3-a573-8eb243bab342/blizzard-entertainment-logo-and-trademark-guidelines -->
<!DOCTYPE svg PUBLIC "-//W3C//DTD SVG 1.1//EN" "http://www.w3.org/Graphics/SVG/1.1/DTD/svg11.dtd">
<svg xmlns="http://www.w3.org/2000/svg"
     version="1.1"
     width="51.237251"
     height="51.268555"
     viewBox="0 0 51.237251 51.268555"
     fill="#1186cb"
>
    <title>Battle.net logo</title>
    <path
            d="m 34.705,15.007554 c -0.746,-0.317 -0.623,-0.247 -0.623,-0.247 0,0 -0.08,-0.088 1.069,0.816 1.75,1.377 2.907,3.603 3.532,5.768 0.768,2.668 0.204,6.369 -2.228,10.053 -5.185,7.856 -13.558,12.445 -15.226,9.722 -0.846,-1.381 1.926,-4.122 1.926,-4.122 l -1.675,0.91 c 0,0 -2.931,3.497 -2.395,5.628 0.915,3.636 10.992,1.171 18.285,-10.746 6.549,-10.697 -0.698,-16.943 -2.665,-17.782 z"
    />
    <path
            d="m 34.666,14.910554 c -0.746,-0.318 -0.899,-0.293 -0.899,-0.293 0,0 0.066,-0.025 1.215,0.879 1.75,1.377 3.038,3.586 3.662,5.752 0.769,2.667 0.205,6.369 -2.228,10.054 -5.185,7.856 -13.557,12.444 -15.226,9.722 -0.846,-1.382 1.925,-4.122 1.925,-4.122 l -1.675,0.909 c 0,0 -2.931,3.497 -2.394,5.628 0.914,3.635 10.991,1.17 18.285,-10.746 6.548,-10.699 -0.698,-16.944 -2.665,-17.783 z"
    />
    <path
            d="m 32.327,34.361554 c 0,0 0.115,-0.025 -1.242,0.517 -2.067,0.827 -4.573,0.717 -6.762,0.174 -2.694,-0.667 -5.617,-3.007 -7.592,-6.955 -4.211,-8.418 -3.999,-17.964 -0.808,-18.048 1.621,-0.042 2.608,3.729 2.608,3.729 l 0.05,-1.905 c 0,0 -1.563,-4.2879999 -3.676,-4.8889999 -3.606,-1.026 -6.51,8.9339999 0.164,21.2079999 5.991,11.02 15.023,7.868 16.733,6.583 0.648,-0.486 0.525,-0.414 0.525,-0.414 z"
    />
    <path
            d="m 31.245,34.772554 c -2.068,0.826 -4.625,0.838 -6.812,0.295 -2.694,-0.667 -5.617,-3.007 -7.593,-6.955 -4.211,-8.419 -3.999,-17.965 -0.807,-18.048 1.62,-0.042 2.608,3.729 2.608,3.729 l 0.05,-1.905 c 0,0 -1.564,-4.2869999 -3.677,-4.8879999 -3.606,-1.026 -6.51,8.9339999 0.163,21.2079999 5.992,11.02 15.024,7.867 16.733,6.583 0.639,-0.479 0.701,-0.627 0.703,-0.632 -0.003,0.007 -0.066,0.093 -1.368,0.613 z"
    />
    <path
            d="m 30.155,11.098554 c -12.539,-0.321 -14.326,9.077 -14.068,11.2 0.098,0.805 0.097,0.663 0.097,0.663 0,0 -0.036,0.113 0.174,-1.333 0.317,-2.203 1.667,-4.319 3.23,-5.943 1.925,-1.999 5.413,-3.361 9.82,-3.097 9.396,0.562 17.556,5.52 16.033,8.325 -0.774,1.423 -4.534,0.393 -4.534,0.393 l 1.625,0.996 c 0,0 4.494,0.79 6.072,-0.74 2.691,-2.611 -4.482,-10.105 -18.449,-10.464 z"
    />
    <path
            d="m 30.092,11.186554 c -12.54,-0.321 -14.325,9.077 -14.068,11.2 0.096,0.793 0.193,0.921 0.196,0.925 -0.003,-0.005 -0.047,-0.102 0.154,-1.492 0.318,-2.204 1.586,-4.424 3.15,-6.047 1.925,-1.999 5.413,-3.361 9.82,-3.098 9.396,0.563 17.556,5.52 16.032,8.325 -0.773,1.424 -4.532,0.394 -4.532,0.394 l 1.625,0.996 c 0,0 4.495,0.79 6.072,-0.74 2.69,-2.61 -4.482,-10.106 -18.449,-10.463 z"
    />
    <path
            d="M 32.892,11.319554 C 32.027,9.6765541 29.399,4.8985541 26.805,2.3585541 c -3.813,-3.734 -5.904,-2.13499996 -6.733,-1.241 -4.759,5.13 -1.827,19.2909999 1.188,27.8139999 a 64.429,64.429 0 0 0 1.449,3.718 c 0.223,-0.09 0.552,-0.229 0.903,-0.398 0.387,-0.188 0.682,-0.345 0.859,-0.442 -0.113,-0.321 -0.227,-0.644 -0.338,-0.972 -2.773,-8.138 -5.046,-21.6069999 -0.404,-24.8619999 1.289,-0.905 2.777,0.146 3.931,1.247 1.059,1.013 2.408,2.9789999 3.044,3.9429999 z m -3.944,30.767 -0.967,0.669 c 2.03,3.24 4.031,5.833 5.602,7.46 0.914,0.947 1.553,0.959 1.553,0.959 -0.824,-0.673 -3.366,-3.751 -6.188,-9.088 z m -3.685,-5.89 c -0.208,0.165 -0.52,0.401 -0.676,0.519 a 73.57,73.57 0 0 0 2.092,3.88 l 0.117,-0.069 1.005,-0.708 a 76.726,76.726 0 0 1 -1.856,-4.155 c -0.16,0.124 -0.454,0.353 -0.682,0.533 z"
    />
    <path
            d="m 31.826,11.174554 c 0.739,0.048 1.142,0.101 1.145,0.101 -0.894,-1.6939999 -3.493,-6.3949999 -6.058,-8.9069999 -3.814,-3.734 -5.905,-2.13399996 -6.734,-1.24 -4.76,5.129 -1.827,19.2919999 1.187,27.8129999 0.448,1.266 0.936,2.51 1.45,3.724 0.223,-0.09 0.552,-0.229 0.903,-0.4 0.387,-0.188 0.682,-0.345 0.86,-0.442 a 92.39,92.39 0 0 1 -0.34,-0.977 c -2.774,-8.138 -5.046,-21.6059999 -0.404,-24.8619999 1.29,-0.904 2.778,0.146 3.93,1.248 1.04,0.993 2.356,2.9029999 3.008,3.8869999 0.036,0.002 0.463,0.018 1.053,0.055 z m -2.773,30.903 a 21.415,21.415 0 0 1 -0.989,0.681 c 2.042,3.274 4.055,5.896 5.632,7.532 0.914,0.946 1.621,0.978 1.621,0.978 -0.826,-0.675 -3.41,-3.801 -6.264,-9.191 z m -3.703,-5.876 c -0.271,0.215 -0.636,0.497 -0.663,0.518 a 73.906,73.906 0 0 0 2.059,3.836 c 0.063,-0.033 0.231,-0.123 0.591,-0.335 0.342,-0.201 0.524,-0.32 0.591,-0.363 a 76.448,76.448 0 0 1 -1.885,-4.21 z"
    />
    <path
            d="m 51.057,29.047554 c -2.063,-6.686 -15.794,-11.227 -24.682,-12.877 a 64.817,64.817 0 0 0 -3.944,-0.605 c -0.034,0.238 -0.078,0.593 -0.107,0.981 a 19.88,19.88 0 0 0 -0.046,0.965 c 0.334,0.061 0.671,0.126 1.011,0.193 8.435,1.666 21.234,6.433 21.733,12.081 0.138,1.57 -1.515,2.333 -3.046,2.781 -1.406,0.411 -3.783,0.595 -4.937,0.665 l -1.225,1.819 c 1.859,0.073 7.308,0.186 10.802,-0.791 5.139,-1.435 4.8,-4.045 4.441,-5.212 z m -49.278,-12.846 c -1.276,0.316 -1.607,0.864 -1.607,0.864 1.001,-0.378 4.964,-1.045 11.04,-0.812 l -0.077,-1.178 c -3.861,0.136 -7.143,0.575 -9.356,1.126 z m 16.186,-1.04 a 74.138,74.138 0 0 0 -4.3,-0.129 l -0.003,0.113 0.056,1.25 c 1.409,0.104 2.909,0.256 4.492,0.469 l -0.126,-0.874 a 76.284,76.284 0 0 1 -0.119,-0.829 z"
    />
    <path
            d="m 41.046,15.840554 a 76.679,76.679 0 0 1 -2.778,3.829 l 0.827,0.326 c 0.318,0.126 0.731,0.293 0.782,0.314 a 73.022,73.022 0 0 0 2.379,-3.85 l -0.099,-0.06 z m -5.292,6.922 c -0.221,0.259 -0.444,0.519 -0.673,0.779 -5.66,6.471 -16.188,15.173 -21.329,12.781 -1.428,-0.664 -1.263,-2.477 -0.885,-4.028 0.357,-1.462 1.431,-3.689 1.933,-4.689 l -0.95,-1.973 c -0.941,1.486 -3.85,6.255 -4.768,9.834 -1.327,5.168 1.104,6.18 2.293,6.451 6.821,1.557 17.619,-8.064 23.493,-14.936 a 65.407,65.407 0 0 0 2.496,-3.114 15.798,15.798 0 0 0 -0.797,-0.582 c -0.356,-0.242 -0.64,-0.418 -0.813,-0.523 z M 47.194,3.8415541 c -0.171,1.05 -1.567,4.787 -4.774,9.8969999 l 1.063,0.504 c 1.788,-3.376 3.032,-6.4039999 3.657,-8.5769999 0.363,-1.264 0.054,-1.824 0.054,-1.824 z"
    />
    <path
            d="m 40.992,15.749554 a 76.056,76.056 0 0 1 -2.705,3.737 c 0.069,0.026 0.482,0.184 0.825,0.318 0.296,0.116 0.693,0.287 0.781,0.325 a 74.982,74.982 0 0 0 2.3,-3.711 l -0.582,-0.341 a 10.39,10.39 0 0 0 -0.619,-0.328 z M 47.185,3.6385541 c -0.172,1.053 -1.587,4.852 -4.827,10.0179999 0.079,0.036 0.31,0.14 0.605,0.281 0.11,0.052 0.367,0.186 0.475,0.241 1.815,-3.407 3.081,-6.4629999 3.708,-8.6479999 0.364,-1.264 0.039,-1.892 0.039,-1.892 z M 35.711,22.662554 c -0.222,0.259 -0.446,0.519 -0.674,0.78 -5.66,6.471 -16.188,15.172 -21.329,12.781 -1.429,-0.665 -1.263,-2.479 -0.885,-4.028 0.351,-1.439 1.397,-3.62 1.909,-4.642 -0.023,-0.045 -0.217,-0.421 -0.472,-0.94 a 35.032,35.032 0 0 1 -0.487,-1.03 c -0.974,1.542 -3.829,6.244 -4.737,9.783 -1.326,5.17 1.104,6.181 2.293,6.452 6.823,1.558 17.621,-8.064 23.494,-14.936 a 66.893,66.893 0 0 0 2.499,-3.114 15.719,15.719 0 0 0 -1.611,-1.106 z"
    />
    <path
            d="m 50.993,29.136554 c -2.062,-6.687 -15.793,-11.229 -24.682,-12.878 a 65.121,65.121 0 0 0 -3.944,-0.605 c -0.034,0.237 -0.078,0.593 -0.106,0.981 -0.031,0.429 -0.042,0.764 -0.046,0.966 0.334,0.062 0.671,0.125 1.011,0.193 8.434,1.667 21.234,6.433 21.733,12.081 0.139,1.569 -1.515,2.332 -3.046,2.78 -1.376,0.402 -3.683,0.588 -4.862,0.661 l 0.002,0.003 -0.603,0.898 c -0.391,0.583 -0.634,0.919 -0.634,0.919 l -0.008,0.006 c 1.912,0.072 7.285,0.172 10.745,-0.794 5.139,-1.435 4.8,-4.046 4.44,-5.211 z m -33.069,-13.892 a 74.714,74.714 0 0 0 -4.262,-0.136 c -0.004,0.098 -0.011,0.345 -0.005,0.682 0.007,0.397 0.018,0.617 0.022,0.7 1.411,0.104 2.911,0.255 4.491,0.466 a 84.502,84.502 0 0 1 -0.141,-0.915 c -0.077,-0.526 -0.101,-0.759 -0.105,-0.797 z m -6.834,-0.098 c -3.896,0.128 -7.209,0.562 -9.432,1.115 -1.276,0.318 -1.658,0.914 -1.658,0.914 1.003,-0.379 5.036,-1.058 11.18,-0.826 -0.008,-0.084 -0.032,-0.33 -0.058,-0.659 -0.009,-0.122 -0.025,-0.42 -0.032,-0.544 z"
    />
</svg>
