<?xml version="1.0" encoding="UTF-8"?>
<!-- Copyright (C) 2020 Oleksandr Masniuk -->
<!-- SPDX-License-Identifier: MIT -->
<!DOCTYPE svg PUBLIC "-//W3C//DTD SVG 1.1//EN" "http://www.w3.org/Graphics/SVG/1.1/DTD/svg11.dtd">
<svg xmlns="http://www.w3.org/2000/svg"
	 version="1.1"
	 viewBox="0 0 85.155708 85.037041"
	 height="85.037041mm"
	 width="85.155708mm"
	 fill="url(#gradient)"
>
	<title>Instagram logo</title>
	<defs>
		<linearGradient id="gradient" x1="0" x2="0" y1="0" y2="1">
			<stop offset="0%" stop-color="#4466ca"/>
			<stop offset="50%" stop-color="#f8504f"/>
			<stop offset="100%" stop-color="#ffc650"/>
		</linearGradient>
	</defs>
	<path
		style="stroke-width:0.26458332"
		d="M 22.74704,84.653444 C 15.67976,83.921366 11.17182,81.981967 7.12045,77.930601 2.85554,73.665692 0.94795,68.970468 0.2694,61.067853 -0.08817,56.903489 -0.09043,28.053719 0.2664,23.852666 0.84117,17.087421 2.34021,12.777184 5.49234,8.826409 9.16117,4.228024 14.08398,1.585266 21.06533,0.466211 23.59087,0.061386 26.14131,0.005136 42.19383,2.22e-4 c 19.58784,-0.006 21.65309,0.10121 25.99641,1.349459 4.01749,1.154607 7.06955,2.921814 9.81748,5.684519 2.50509,2.518571 3.89448,4.698028 5.12651,8.041684 1.70282,4.621353 1.83244,6.190168 1.97857,23.944793 0.17777,21.599326 -0.13006,25.984128 -2.20579,31.419657 -1.42392,3.728691 -3.54419,6.622862 -6.68245,9.121529 -3.99593,3.18154 -8.16833,4.630936 -15.02626,5.219787 -4.7001,0.403569 -34.26951,0.304978 -38.45134,-0.128206 z m 40.48125,-7.649851 c 3.09876,-0.538829 4.08829,-0.848304 6.14167,-1.920822 4.45015,-2.324393 7.07155,-6.634101 7.85323,-12.911052 0.41641,-3.343818 0.6053,-22.189697 0.31557,-31.485417 C 77.25204,21.487061 77.0557,20.048027 75.61527,16.587957 74.50816,13.928558 71.65119,10.939963 69.02981,9.699083 64.6477,7.624737 62.80229,7.468981 42.59079,7.467599 25.39823,7.466399 22.9036,7.57464 19.42527,8.472521 14.11702,9.842773 10.06915,13.763305 8.64638,18.912343 7.63985,22.554959 7.5455,24.640752 7.56325,42.857135 c 0.0185,18.98989 0.0926,20.252725 1.41831,24.188169 1.45624,4.32276 4.73773,7.57823 9.13264,9.060201 2.48172,0.83684 4.14729,1.068229 9.26305,1.286859 8.03638,0.343448 33.21001,0.07046 35.85104,-0.388771 z M 40.47412,64.24583 C 33.06289,63.524263 26.36318,58.876153 22.91921,52.066612 c -0.38216,-0.755624 -1.00462,-2.422499 -1.38324,-3.704167 -0.58263,-1.972273 -0.69003,-2.858781 -0.699,-5.769893 -0.0116,-3.75724 0.32784,-5.536533 1.64967,-8.648017 2.35273,-5.538132 6.90447,-9.822978 12.82811,-12.075916 3.94932,-1.502047 11.06298,-1.445326 14.86958,0.118563 7.2477,2.977623 12.01812,8.449393 13.69686,15.710578 0.57317,2.479135 0.52602,7.577828 -0.0917,9.921875 C 62.662,51.8978 60.8154,55.112723 57.755,58.125615 53.25275,62.557992 46.75923,64.85775 40.47417,64.24583 Z m 5.05712,-7.766672 c 2.50285,-0.471715 5.11962,-1.915896 7.1495,-3.945774 5.61925,-5.61925 5.61205,-14.396516 -0.0165,-20.099229 -8.90376,-9.021094 -24.36097,-2.659459 -24.36097,10.026105 0,6.04053 3.80522,11.488796 9.39271,13.448366 0.87313,0.30621 1.88516,0.60407 2.24896,0.661908 1.35425,0.215308 4.20662,0.168648 5.58628,-0.09138 z M 63.04735,23.969072 C 60.3337,22.70103 59.50133,18.842421 61.41628,16.40795 c 1.51295,-1.923399 4.84591,-2.302206 6.76889,-0.769313 0.54793,0.436785 1.23179,1.262758 1.51969,1.835494 1.03447,2.057979 0.42299,4.48623 -1.51969,6.034834 -1.30681,1.041717 -3.47721,1.236083 -5.13782,0.460107 z" />
</svg>
