<?xml version="1.0" encoding="UTF-8"?>
<!-- Copyright (C) liquipedia.net -->
<!-- SPDX-License-Identifier: CC-BY-SA-3.0-->
<!DOCTYPE svg PUBLIC "-//W3C//DTD SVG 1.1//EN" "http://www.w3.org/Graphics/SVG/1.1/DTD/svg11.dtd">
<svg xmlns="http://www.w3.org/2000/svg"
     version="1.1"
     width="137.33978mm"
     height="97.34021mm"
     viewBox="0 0 137.33978 97.34021"
>
  <title>Liquipedia logo</title>
  <g>
    <path
            style="fill:#042b4c;stroke:#0c3c6a;stroke-width:1.85208333"
            d="m 101.55376,0.926042 h -0.21166 c -1.19063,0.1322917 -25.267712,2.38125 -28.918962,3.5454166 -1.613958,0.5027083 -4.180417,1.905 -3.069167,5.7150004 0.370417,1.27 1.957917,4.021666 3.386667,6.482291 0.211667,0.370417 0.396875,0.687917 0.502708,0.873125 2.831042,4.974167 1.931458,8.519583 0.820208,11.059583 -2.222499,5.106459 -7.064374,6.932084 -10.874374,6.932084 -2.248959,0 -4.471459,-0.608542 -6.217709,-1.693334 -5.450416,-3.413125 -7.381875,-8.149166 -5.926666,-14.472708 0.740833,-3.413125 1.031875,-5.87375 0.873125,-7.540625 -0.132292,-1.27 -0.740834,-2.2489581 -1.74625,-2.8574998 -0.767292,-0.4497916 -1.74625,-0.6879166 -2.963334,-0.6879166 -2.407708,0 -4.974166,0.9260416 -5.265208,1.031875 L 23.157722,15.5575 c -0.661459,0.211667 -1.164167,0.635 -1.455209,1.190625 C 21.517305,17.145 21.332097,17.78 21.623138,18.626667 l 5.000625,15.001875 c 1.137709,3.386666 0.820209,4.841875 0.370417,5.476875 -0.370417,0.529166 -1.137708,0.79375 -2.2225,0.79375 -0.264583,0 -0.529167,-0.02646 -0.846667,-0.05292 l -3.095625,-0.3175 -6.006041,-0.608542 c -0.370417,-0.02646 -0.740833,-0.05292 -1.11125,-0.05292 -3.307292,0 -6.588125,1.534583 -9.0222916,4.206874 -2.69875,3.01625 -4.07458332,7.196667 -3.70416665,11.456459 0.55562495,6.006041 3.73062495,9.419166 6.27062495,11.218333 3.0162503,2.143125 6.4293753,2.936875 8.4137503,2.963333 h 0.238125 c 2.8575,0 5.847291,-0.846667 9.419166,-2.672291 3.65125,-1.878542 5.132917,-2.169584 5.688542,-2.169584 h 0.105833 c 2.037292,0.211667 1.984375,4.524375 1.984375,4.550833 v 0.05292 l 0.3175,25.585208 v 0.105833 c 0.211667,1.666875 1.375833,2.248959 2.328333,2.248959 h 0.211667 c 1.190625,-0.105834 25.267708,-2.38125 28.8925,-3.518958 1.613958,-0.502709 4.180416,-1.905 3.069166,-5.715 -0.370416,-1.27 -1.957916,-4.021667 -3.386666,-6.482292 -0.211667,-0.370417 -0.396875,-0.687917 -0.502709,-0.873125 -2.831041,-4.974167 -1.931458,-8.519583 -0.820208,-11.059583 2.2225,-5.106458 7.064375,-6.932083 10.874375,-6.932083 2.248958,0 4.471458,0.608541 6.217708,1.693333 5.450417,3.413125 7.381875,8.149166 5.926667,14.472708 -0.740834,3.413125 -1.031875,5.87375 -0.873125,7.540625 0.132291,1.27 0.740833,2.248958 1.74625,2.8575 0.767291,0.449792 1.74625,0.687917 2.963333,0.687917 2.407708,0 4.974167,-0.926042 5.265208,-1.031875 l 18.785416,-6.244167 c 0.66146,-0.211667 1.16417,-0.635 1.45521,-1.190625 0.18521,-0.396875 0.37042,-1.031875 0.0794,-1.878542 l -5.00062,-15.001874 c -1.13771,-3.386667 -0.82021,-4.841875 -0.37042,-5.476875 0.37042,-0.529167 1.13771,-0.79375 2.2225,-0.79375 0.26459,0 0.52917,0.02646 0.84667,0.05292 l 3.09562,0.3175 6.00605,0.608542 c 0.37041,0.02646 0.74083,0.05292 1.11125,0.05292 3.30729,0 6.58812,-1.534584 9.02229,-4.206875 2.77812,-3.042709 4.15396,-7.249584 3.75708,-11.509375 -0.55562,-6.006042 -3.73062,-9.419167 -6.27062,-11.218333 -3.01625,-2.143125 -6.42938,-2.936875 -8.41375,-2.963334 H 121.424 c -2.8575,0 -5.84729,0.846667 -9.41917,2.672292 -3.65125,1.878542 -5.13291,2.169583 -5.68854,2.169583 h -0.10583 c -2.03729,-0.211666 -1.98438,-4.524375 -1.98438,-4.550833 v -0.05292 L 103.8821,3.307292 V 3.2014586 C 103.67043,1.5081253 102.50626,0.926042 101.55376,0.926042 Z" />
    <path
            style="fill:#ffffff;stroke-width:0.26458332"
            d="m 87.345638,78.290208 c -0.105834,0.555625 -0.238125,1.084791 -0.343959,1.640416 2.301875,0.02646 5.820834,-0.820208 5.820834,-0.820208 l -5.08,-6.455833 c 0.211666,1.852083 0.02646,3.757083 -0.396875,5.635625 z"
    />
    <path
            style="fill:#ffffff;stroke-width:0.26458332"
            d="m 66.893346,87.550624 c -0.449791,-1.508125 -3.148541,-5.953125 -3.81,-7.117291 -3.042708,-5.371042 -2.037291,-9.36625 -0.873125,-12.065 0.423334,-0.978959 0.926042,-1.825625 1.508125,-2.619375 -2.143125,-6.932083 -1.217083,-14.44625 -1.217083,-14.44625 0.370417,5.423958 2.831042,9.472083 4.365625,11.535833 4.312708,-2.751666 10.054166,-2.672291 14.022916,-0.185208 4.233334,2.672292 6.217709,5.953125 6.746875,9.445625 l 10.133542,4.339166 5.979579,-8.863541 -16.509996,-24.92375 c -1.217083,-3.122083 -0.740833,-6.985 -0.740833,-6.985 -0.635,-0.211666 -6.482292,-3.360208 -11.641667,-6.164791 -3.571874,7.46125 -12.832291,8.810625 -18.494374,5.265208 -4.153959,-2.592917 -6.111875,-5.794375 -6.720417,-9.2075 -1.905,1.084792 -3.942291,2.487083 -6.058958,4.180417 -3.201458,-4.021667 -7.3025,-9.763125 -10.900833,-16.218958 l -9.128125,3.042708 c -0.714375,0.238125 -1.11125,0.820208 -0.820209,1.666875 0,0 0.238125,0.740833 0.635,1.905 5.106459,6.006041 10.715625,11.165416 14.9225,14.631458 -1.561041,1.666875 -3.095625,3.518958 -4.524375,5.55625 -1.561041,-0.820208 -3.307291,-1.772708 -5.185833,-2.8575 0,2.248958 -1.137708,3.836458 -4.709583,3.4925 -2.54,-0.264584 -8.202083,-0.846667 -9.101667,-0.926042 -0.79375,-0.07937 -1.561041,-0.05292 -2.328333,0.05292 6.455833,2.910416 12.832291,5.053541 17.594791,6.376458 -1.084791,2.090208 -2.06375,4.312708 -2.883958,6.6675 -6.323542,-0.396875 -15.610416,-1.508125 -24.5004163,-4.074583 -0.5027083,1.666875 -0.714375,3.518958 -0.5291666,5.423958 0.2645833,3.01625 1.2435416,5.371042 2.5664583,7.223125 7.7258336,0.185208 15.1870836,-0.529167 20.4787496,-1.322917 -0.3175,1.5875 -0.555625,3.227917 -0.740833,4.92125 0.132291,-0.07937 0.264583,-0.132291 0.423333,-0.211666 2.54,-1.296459 5.08,-2.38125 6.402917,-2.275417 3.175,0.3175 2.989791,5.715 2.989791,5.715 l 0.3175,25.585208 c 0.185209,1.42875 1.322917,1.27 1.322917,1.27 0,0 25.135416,-2.354792 28.680833,-3.4925 3.175,-0.978958 2.619375,-3.33375 2.328333,-4.339167 z m 29.183542,-19.976041 3.439583,0.926041 -4.445,0.820209 -2.010833,-3.677708 z m -16.113125,-26.643542 2.434166,2.328334 c 0,0 -2.883958,1.190625 -4.1275,0.396875 -1.243541,-0.820209 -3.254375,-5.265208 -3.254375,-5.265208 z"
    />
    <path
            style="fill:#ffffff;stroke-width:0.26458332"
            d="m 49.563138,24.632708 c -0.185208,-1.825625 0,-3.677708 0.423333,-5.529791 0.582084,-2.69875 1.005417,-5.3975 0.846667,-7.196667 -0.370417,-3.4924998 -5.053541,-2.5929164 -7.3025,-1.9579164 1.905,5.6356244 4.1275,10.7685414 6.0325,14.6843744 z"
    />
  </g>
</svg>
