<?xml version="1.0" encoding="UTF-8"?>
<!-- Copyright (C) 2020 Oleksandr Masniuk and contributors -->
<!-- SPDX-License-Identifier: MIT -->
<!DOCTYPE svg PUBLIC "-//W3C//DTD SVG 1.1//EN" "http://www.w3.org/Graphics/SVG/1.1/DTD/svg11.dtd">
<svg xmlns="http://www.w3.org/2000/svg"
     version="1.1"
     viewBox="0 0 34.26416 30.396643"
     height="30.396643mm"
     width="34.26416mm">
>
    <title>StarCraft2 logo</title>
    <path
        d="m 12.64157,4.9e-5 c -0.20373,-0.0021 -1.15623,0.18823 -2.11667,0.42323 C 9.56446,0.658277 8.39134,0.932073 7.91783,1.031511 7.08768,1.205848 6.71921,1.339989 6.82384,1.429937 c 0.0274,0.02358 0.41192,0.215196 0.85472,0.425812 1.31758,0.62669 2.30427,1.669794 2.77399,2.933156 0.0211,0.05669 0.0394,0.124203 0.0558,0.214458 0.35202,0.0024 0.62332,7.67e-4 1.00563,0.0046 l 5.03018,0.05116 C 16.53716,2.70183 16.52726,1.2275 16.51316,1.213363 16.37752,1.077725 12.94865,0.003117 12.64156,0 Z m -2.05621,6.103505 c 0.0134,0.432363 0.0207,1.232418 0.0274,2.039151 0.73097,-1.56e-4 1.25167,0.014 1.649,0.05478 0.8097,0.08308 1.23798,0.416433 1.55701,0.756026 l 0.24959,0.267683 1.80093,-1.791105 0.68058,-0.677478 c -5.1e-4,-0.261112 -0.002,-0.353047 -0.002,-0.594278 l -5.0457,-0.05064 c -0.34916,-0.0036 -0.59322,-0.0019 -0.91674,-0.0041 z m 5.96605,2.198833 -2.50838,2.496485 -1.02526,-1.091405 C 12.69874,9.367874 12.80744,9.360633 12.14858,9.293024 c -0.22747,-0.02333 -0.91655,-0.01546 -1.52756,-0.01085 10e-4,0.252871 0.004,0.362071 0.005,0.646989 0.46929,0.56505 1.44974,1.688175 2.37246,2.705779 1.27554,1.406713 2.51957,2.921014 3.48041,4.203361 0.0276,0.03685 0.0493,0.06845 0.0765,0.104902 -10e-4,-2.912552 -6.1e-4,-6.689532 -0.004,-8.640815 z m -5.92419,3.324858 c 0.002,1.133319 0.004,2.179397 0.004,3.760494 v 2.12597 c 0.0911,0.102433 0.25629,0.294439 0.33435,0.381373 l 2.66598,2.968294 h -3.00033 v 2.064474 c 1.64508,-0.009 2.94464,-0.0254 3.6742,-0.0682 1.11495,-0.0654 1.31382,-0.14793 1.62884,-0.34003 0.21566,-0.13151 0.43038,-0.33401 0.62321,-0.56948 3e-5,-1.2575 -10e-4,-1.974452 -0.002,-3.099035 -0.26382,-0.398782 -0.57647,-0.847037 -0.95549,-1.352888 -0.93644,-1.249783 -2.16547,-2.743253 -3.41633,-4.122748 -0.5333,-0.588124 -1.0853,-1.208514 -1.5565,-1.748214 z m 0.004,7.541144 v 0.595828 h 0.53537 z m 5.92677,4.256071 c -0.0175,0.0111 -0.034,0.0238 -0.0517,0.0346 -0.43268,0.26385 -0.95637,0.42886 -2.13682,0.49816 -0.77321,0.0454 -2.08553,0.0617 -3.73827,0.0703 v 1.48001 l 0.67179,0.83044 c 0.7845,0.970091 1.95381,2.054941 2.92644,2.715079 0.98282,0.667062 2.10258,1.343591 2.22415,1.343591 0.0664,0 0.10476,-1.57866 0.10542,-4.36563 2.6e-4,-1.20962 -0.001,-1.49462 -0.001,-2.60656 z"
        style="fill:#295a91;stroke-width:0.40000001"
    />
    <path
        d="m 23.0151,4.9e-5 c -0.3071,0.0031 -3.73596,1.077725 -3.8716,1.213364 -0.0141,0.01418 -0.0236,1.495867 -0.031,3.872113 l 0.66714,0.0067 -0.66973,0.665594 c -0.002,0.593402 -0.003,1.151147 -0.004,1.87947 l 0.94723,-0.947745 1.75597,-1.755447 3.34553,0.03876 c 0.0149,-0.07415 0.0316,-0.134146 0.0501,-0.183967 0.46972,-1.263362 1.45589,-2.306466 2.77347,-2.933155 0.44277,-0.210616 0.8273,-0.402233 0.8547,-0.425812 C 28.93754,1.339974 28.56907,1.205835 27.73892,1.031498 27.26541,0.932058 26.09229,0.658264 25.13185,0.423266 24.17141,0.188266 23.21891,-0.002065 23.01518,3.6e-5 Z m -0.755,6.039425 -1.42988,1.427821 -0.65423,0.654222 h 3.58583 c 0.55187,0 0.84681,0.0035 1.28261,0.0041 0.007,-0.815745 0.0141,-1.62151 0.0279,-2.053622 z m 2.77503,3.305741 -0.41187,0.826822 c -0.31061,0.626113 -0.61342,1.747279 -0.77928,2.816365 -0.16589,1.069089 -0.17802,2.142803 -0.0724,2.535246 0.28151,1.045459 0.69576,1.931707 1.25419,2.683042 v -2.818951 c 0,-2.719059 0.003,-4.564255 0.009,-6.042524 z m -3.4122,0.405143 c -1.43481,0 -2.17227,0.0254 -2.40037,0.08785 -0.114,0.03121 -0.0725,0.01783 -0.0858,0.03721 -0.005,0.0069 -0.0189,0.04115 -0.032,0.07286 -0.002,1.815364 -0.002,4.849005 -0.003,7.370608 0.42083,1.026943 1.16438,2.145813 2.04122,3.089736 1.08597,1.169056 2.38171,2.061707 3.33571,2.288749 0.10513,0.025 0.30967,0.05306 0.54726,0.08113 v -2.93729 c -1.10141,-1.055222 -1.87819,-2.403938 -2.31666,-4.032311 -0.20724,-0.769715 -0.13104,-1.84064 0.047,-2.988447 0.1743,-1.123429 0.46916,-2.252732 0.863,-3.070098 h -1.99574 z m -2.52181,9.863997 c -2.6e-4,2.395559 -0.003,3.438898 -0.003,6.416664 5.3e-4,2.786977 0.0385,4.365624 0.10491,4.365624 0.12157,0 1.24133,-0.676529 2.22415,-1.343589 0.97263,-0.66014 2.14194,-1.74499 2.92644,-2.715078 l 0.67185,-0.83044 v -1.61489 c -0.30879,-0.03525 -0.59383,-0.07524 -0.80098,-0.124539 -1.33146,-0.31687 -2.70301,-1.335529 -3.88659,-2.60966 -0.44892,-0.483272 -0.86803,-1.003861 -1.23713,-1.544092 z"
        style="fill:#295a91;stroke-width:0.40000001"
    />
    <path
        d="m 2.23306,21.239124 2.23306,-2.24472 0.68599,0.65722 c 0.65433,0.62689 0.83576,0.65723 3.93062,0.65723 h 3.24462 l -1.84125,-2.05052 c -1.01269,-1.12779 -3.15321,-3.59834 -4.7567,-5.49011 l -2.91544,-3.43958 3.21739,-0.081 c 3.21738,-0.081 3.21738,-0.081 3.87884,0.76162 0.3638,0.46345 1.53825,1.8096 2.60989,2.99143 2.5264,2.78621 4.94725,6.017111 5.16824,6.89761 0.23761,0.946691 -0.51942,2.464746 -1.53925,3.086646 -0.7477,0.45594 -1.44732,0.49702 -8.482,0.49792 L 0,23.48387 Z m 22.04762,1.989916 c -2.28546,-0.5439 -5.33297,-3.824586 -6.03068,-6.492066 -0.44267,-1.69244 -0.36245,-5.02394 0.16087,-6.68073 0.27161,-0.859889 0.27161,-0.859889 3.14123,-0.859889 h 2.86962 l -0.36096,0.7276 c -0.71767,1.446639 -1.20316,4.576029 -0.89022,5.738189 0.64419,2.39236 1.99748,4.08203 4.12066,5.144901 0.92633,0.463729 1.38344,0.52656 2.77355,0.381269 1.66442,-0.173969 1.66442,-0.173969 1.25296,0.465466 -0.71424,1.11001 -2.50593,1.83365 -4.4641,1.80298 -0.95143,-0.0149 -2.10925,-0.11737 -2.57293,-0.22772 z M 13.34713,9.325826 C 12.70906,8.646635 12.70906,8.646635 7.47289,8.723054 l -5.23616,0.0764 2.6e-4,-0.801019 c 3.4e-4,-1.00304 0.55477,-1.81383 1.51109,-2.20983 0.51024,-0.21128 2.88443,-0.2838 7.68955,-0.2349 l 6.95142,0.0708 -2.20193,2.19027 -2.20193,2.190269 z m 15.88465,0.0103 C 28.60337,8.667215 28.60335,8.667215 23.69119,8.667215 h -4.91217 l 1.59252,-1.59252 1.59252,-1.59252 6.15006,0.0712 6.15004,0.0712 -2.20198,2.19026 -2.20199,2.190269 z"
    style="fill:#295a91;stroke-width:1"
    />
</svg>
