<?xml version="1.0" encoding="UTF-8"?>
<!-- Copyright (C) 2020-2022 Oleksandr Masniuk -->
<!-- SPDX-License-Identifier: AGPL-3.0-or-later -->
<svg xmlns="http://www.w3.org/2000/svg"
     version="1.1"
     viewBox="0 0 145.38686 158.63156"
     height="158.63156mm"
     width="145.38686mm"
>
    <title>StarCraft2 Platinum League</title>
    <path
        d="m 77.867427,17.810001 -10.791472,8.36048 c -1.423458,1.102784 -3.738739,1.083028 -5.1308,-0.04339 L 51.615822,17.766609 c -2.185105,-1.768827 -0.566914,-4.703586 2.592917,-4.703586 h 21.120805 c 3.197577,0 4.798836,2.995084 2.537883,4.746978 m 65.679813,63.191318 c -5.53191,-9.4361 -10.06334,-19.392547 -15.09148,-29.090408 -2.55023,-4.918427 -5.08035,-9.847086 -7.60025,-14.780683 -2.49943,-4.894086 -5.04013,-9.774061 -7.48276,-14.693194 -1.29717,-2.611966 -2.59433,-5.22358 -3.89114,-7.835547 -2.10856,-4.24568 -4.41466,-8.249708 -8.28605,-11.1347246 C 99.423207,2.1459625 97.418724,1.1176153 95.269954,0.57610138 91.739707,-0.31360416 87.984741,0.08750417 84.394874,0.10620139 c -1.392767,0.007056 -2.785533,0.0130528 -4.1783,0.0176389 C 74.645155,0.14147917 69.073383,0.1361875 63.501963,0.10373195 61.050511,0.08962084 58.599058,0.07057084 56.147605,0.04552361 54.323039,0.02717917 52.733069,0.54787916 51.307847,1.8859652 47.965278,5.0239235 44.425506,7.951979 41.043072,11.048309 c -1.811514,1.658409 -3.741561,2.265539 -6.192661,2.249312 -3.708752,-0.02469 -7.402336,-0.08361 -11.140369,0.615244 -11.002786,2.056694 -18.6344273,8.087078 -22.76898275,18.422055 -0.61700832,1.541639 -1.23119442,3.251906 -0.79269165,4.929717 0.20531666,0.664633 0.43779721,1.302102 1.33985,1.274233 6.3535276,-6.478764 14.5422054,-5.309305 21.9413664,-4.12115 6.977944,1.707797 10.52195,5.521325 14.959541,9.56698 3.365147,2.724856 4.814358,6.280503 3.750028,10.446456 -2.622197,10.263011 -6.494639,20.031427 -12.617097,28.764794 l -5.764742,8.649758 c -3.723569,5.587647 -2.986616,13.026672 1.76142,17.774352 l 46.075951,46.07595 c 3.91407,3.91407 10.260189,3.91407 14.174611,0 l 54.482644,-54.48299 c 5.32871,-5.32836 6.65551,-13.466237 3.2953,-20.211701"
        style="fill:#a5a4a3"/>
</svg>
